<svg width="53" height="57" viewBox="0 0 53 57" fill="none" xmlns="http://www.w3.org/2000/svg">
<rect x="8" width="32" height="39" fill="#BB86FC"/>
<line x1="8.5" y1="39" x2="8.5" y2="54" stroke="#BB86FC"/>
<line x1="8.64645" y1="53.6464" x2="23.6464" y2="38.6464" stroke="#BB86FC"/>
<line x1="8" y1="38.5" x2="24" y2="38.5" stroke="#BB86FC"/>
<line x1="39" y1="38.5" x2="24" y2="38.5" stroke="#BB86FC"/>
<line x1="24.3536" y1="38.6464" x2="39.3536" y2="53.6464" stroke="#BB86FC"/>
<line x1="39.5" y1="38" x2="39.5" y2="54" stroke="#BB86FC"/>
<path d="M33.7702 32.2507L33.9147 47.3717L18.6714 33.081L33.7702 32.2507Z" fill="#BB86FC"/>
<path d="M41 55C47.6274 55 53 49.6274 53 43C53 36.3726 47.6274 31 41 31C34.3726 31 29 36.3726 29 43C29 49.6274 34.3726 55 41 55Z" fill="#71C386"/>
<path d="M47 42H42V37C42 36.448 41.552 36 41 36C40.448 36 40 36.448 40 37V42H35C34.448 42 34 42.448 34 43C34 43.552 34.448 44 35 44H40V49C40 49.552 40.448 50 41 50C41.552 50 42 49.552 42 49V44H47C47.552 44 48 43.552 48 43C48 42.448 47.552 42 47 42Z" fill="white"/>
<path d="M8.57626 37.5024L23.8588 38.0712L9.00432 52.7895L8.57626 37.5024Z" fill="#BB86FC"/>
<rect x="8" width="32" height="6" fill="#815DAE"/>
</svg>
