<svg width="18" height="20" viewBox="0 0 18 20" fill="none" xmlns="http://www.w3.org/2000/svg">
<path fill-rule="evenodd" clip-rule="evenodd" d="M6 1C6 0.447715 5.55228 0 5 0C4.44772 0 4 0.447715 4 1V2H2C0.895431 2 0 2.89543 0 4V9V18C0 19.1046 0.895431 20 2 20H16C17.1046 20 18 19.1046 18 18V9V4C18 2.89543 17.1046 2 16 2H14V1C14 0.447715 13.5523 0 13 0C12.4477 0 12 0.447715 12 1V2H6V1ZM16 8V4H14V5C14 5.55228 13.5523 6 13 6C12.4477 6 12 5.55228 12 5V4H6V5C6 5.55228 5.55228 6 5 6C4.44772 6 4 5.55228 4 5V4H2V8H16ZM2 10H16V18H2V10Z" fill="#BB86FC"/>
</svg>
