<svg width="20" height="20" viewBox="0 0 20 20" fill="none" xmlns="http://www.w3.org/2000/svg">
<path fill-rule="evenodd" clip-rule="evenodd" d="M0 14.9053C0 14.2053 0.558714 13.6378 1.24792 13.6378C1.93713 13.6378 2.49584 14.2053 2.49584 14.9053L2.49584 17.465L17.5042 17.465V14.9053C17.5042 14.2053 18.0629 13.6378 18.7521 13.6378C19.4413 13.6378 20 14.2053 20 14.9053V17.465C20 18.865 18.8826 20 17.5042 20H2.49584C1.11743 20 0 18.865 0 17.465L0 14.9053ZM5.84417 8.31041L8.70552 11.2167L8.70552 1.26751C8.70552 0.567484 9.26423 -3.93647e-08 9.95344 -3.93647e-08C10.6426 -3.93647e-08 11.2014 0.567484 11.2014 1.26751L11.2014 11.2167L14.0627 8.31041C14.5501 7.81542 15.3402 7.81542 15.8275 8.31041C16.3149 8.80541 16.3149 9.60795 15.8275 10.1029L11.7183 14.2767C10.7436 15.2667 9.1633 15.2667 8.18861 14.2767L4.07934 10.1029C3.59199 9.60795 3.59199 8.80541 4.07934 8.31041C4.56668 7.81542 5.35682 7.81542 5.84417 8.31041Z" fill="#BB86FC"/>
</svg>
