<?xml version="1.0" encoding="iso-8859-1"?>
<!-- Generator: Adobe Illustrator 18.0.0, SVG Export Plug-In . SVG Version: 6.00 Build 0)  -->
<!DOCTYPE svg PUBLIC "-//W3C//DTD SVG 1.1//EN" "http://www.w3.org/Graphics/SVG/1.1/DTD/svg11.dtd">
<svg version="1.1" id="Capa_1" xmlns="http://www.w3.org/2000/svg" xmlns:xlink="http://www.w3.org/1999/xlink" x="0px" y="0px"
	 viewBox="0 0 62.245 62.245" style="enable-background:new 0 0 62.245 62.245;" xml:space="preserve">
<g>
	<path style="fill:#231F20;" d="M55.337,62.191c-7.839-5.654-15.539-11.208-23.327-16.826c-1.864,1.19-3.597,2.284-5.316,3.398
		c-3.681,2.384-7.395,4.72-11.016,7.191c-2.457,1.677-4.779,3.55-7.16,5.337c-0.398,0.298-0.747,0.751-1.19,0.87
		c-0.487,0.133-1.149,0.117-1.561-0.126c-0.297-0.175-0.442-0.834-0.429-1.271c0.127-4.211,0.372-8.419,0.449-12.63
		c0.162-8.931,0.251-17.861,0.355-26.793c0.062-5.281,0.143-10.564,0.109-15.845c-0.01-1.54-0.384-3.078-0.612-4.771
		c0.756-0.109,1.382-0.291,2.002-0.273c1.633,0.047,3.273,0.342,4.895,0.255c10.012-0.535,20.021-0.681,30.045-0.335
		c3.457,0.119,6.93-0.261,10.397-0.347c3.688-0.091,4.156-0.178,3.851,3.873c-0.336,4.454-0.143,8.946-0.231,13.421
		c-0.163,8.284-0.468,16.565-0.513,24.85c-0.031,5.714,0.235,11.432,0.459,17.144C56.59,60.492,56.483,61.445,55.337,62.191z
		 M8.66,3.024c-0.885,4.238-1.322,52.694-0.508,55.62c7.89-5.289,15.756-10.564,23.635-15.847
		c7.405,5.3,14.695,10.518,22.129,15.838c0.243-18.819,0.483-37.453,0.727-56.334C39.144,2.139,23.873,1.722,8.66,3.024z"/>
	<path style="fill:#231F20;" d="M30.336,6.086c-0.371,3.212-0.741,6.425-1.111,9.637C28.578,12.292,29.03,7.358,30.336,6.086z"/>
	<path style="fill:#231F20;" d="M50.662,14.134c-0.228-2.835-0.85-5.701,0.175-8.43c0.234,0.02,0.47,0.041,0.704,0.061
		C51.248,8.555,50.955,11.345,50.662,14.134z"/>
	<path style="fill:#231F20;" d="M14.381,5.878c-0.174,3.058-0.349,6.115-0.54,9.477C13.023,12.392,13.165,7.356,14.381,5.878z"/>
	<path style="fill:#231F20;" d="M24.695,5.571c-0.15,2.664-0.301,5.327-0.451,7.991c-0.749-2.678-1.075-5.358-0.295-8.046
		C24.197,5.534,24.446,5.552,24.695,5.571z"/>
	<path style="fill:#231F20;" d="M41.52,5.014c0.341,3.236-0.412,5.973-0.398,8.733C40.177,11.269,40.308,7.052,41.52,5.014z"/>
	<path style="fill:#231F20;" d="M19.459,5.321c-0.23,3.098-0.432,5.799-0.633,8.5C17.949,9.473,18.121,6.944,19.459,5.321z"/>
	<path style="fill:#231F20;" d="M35.783,6.105c-0.159,1.989-0.319,3.978-0.479,5.968c-0.434-2.014-0.924-4.021-0.289-5.989
		C35.27,6.09,35.527,6.097,35.783,6.105z"/>
	<path style="fill:#231F20;" d="M10.78,5.881c-0.172,2.459-0.345,4.918-0.518,7.376c-0.351-2.47-0.713-4.936-0.289-7.381
		C10.243,5.878,10.511,5.88,10.78,5.881z"/>
	<path style="fill:#231F20;" d="M46.686,10.396c-0.235-1.699-0.471-3.397-0.706-5.097C47.264,6.403,47.39,7.324,46.686,10.396z"/>
</g>
<g>
</g>
<g>
</g>
<g>
</g>
<g>
</g>
<g>
</g>
<g>
</g>
<g>
</g>
<g>
</g>
<g>
</g>
<g>
</g>
<g>
</g>
<g>
</g>
<g>
</g>
<g>
</g>
<g>
</g>
</svg>
