<svg width="17" height="18" viewBox="0 0 17 18" fill="none" xmlns="http://www.w3.org/2000/svg">
<g clip-path="url(#clip0_12_931)">
<path d="M15.6574 15.3068L15.0844 14.4872L15.6574 15.3068ZM14.8414 12.6819C10.2576 12.6819 6.61378 9.12842 6.61378 4.83207H4.61378C4.61378 10.3109 9.23263 14.6819 14.8414 14.6819V12.6819ZM6.61378 4.83207C6.61378 4.12442 6.71168 3.44002 6.89481 2.78974L4.9697 2.24758C4.73748 3.07216 4.61378 3.93892 4.61378 4.83207H6.61378ZM2 8.15058C2 5.65388 3.22224 3.41829 5.15068 1.9732L3.95134 0.372706C1.55687 2.16702 0 4.97809 0 8.15058H2ZM10.2276 16.0004C5.64381 16.0004 2 12.4469 2 8.15058H0C0 13.6295 4.61885 18.0004 10.2276 18.0004V16.0004ZM15.0844 14.4872C13.7258 15.437 12.0486 16.0004 10.2276 16.0004V18.0004C12.4659 18.0004 14.5419 17.3068 16.2304 16.1264L15.0844 14.4872ZM6.89481 2.78974C7.12704 1.96512 6.86671 1.12042 6.35184 0.584935C6.08737 0.309873 5.71885 0.079258 5.26932 0.0164614C4.80116 -0.0489386 4.33948 0.0818459 3.95134 0.372706L5.15068 1.9732C5.15607 1.96916 5.14182 1.98089 5.1073 1.99031C5.07207 1.99994 5.0318 2.0027 4.99262 1.99723C4.91584 1.9865 4.89341 1.95372 4.91015 1.97113C4.92621 1.98783 4.95355 2.0278 4.96918 2.0873C4.98395 2.1435 4.98347 2.19866 4.9697 2.24758L6.89481 2.78974ZM14.8414 14.6819C14.8832 14.6819 14.9219 14.6936 14.9558 14.7142C14.9931 14.7369 15.0101 14.7615 15.0128 14.7666C15.0156 14.7718 14.9896 14.7262 15.0058 14.6402C15.0139 14.597 15.0308 14.5572 15.0519 14.5256C15.0726 14.4947 15.089 14.484 15.0844 14.4872L16.2304 16.1264C16.6179 15.8554 16.8853 15.4675 16.9714 15.0097C17.0543 14.5683 16.9529 14.1503 16.7729 13.8169C16.4219 13.1662 15.6933 12.6819 14.8414 12.6819V14.6819Z" fill="#BB86FC"/>
</g>
<defs>
<clipPath id="clip0_12_931">
<rect width="17" height="18" fill="white"/>
</clipPath>
</defs>
</svg>
