<svg width="20" height="20" viewBox="0 0 20 20" fill="none" xmlns="http://www.w3.org/2000/svg">
<path fill-rule="evenodd" clip-rule="evenodd" d="M12.0202 0.510327C12.7259 0.175082 13.4883 0 14.2623 0C15.0363 0 15.7987 0.175082 16.5043 0.510327C17.2095 0.845296 17.8406 1.33171 18.3658 1.93419C18.891 2.53609 19.3015 3.24359 19.5797 4.0134C19.858 4.78334 20 5.6048 20 6.43187C20 7.25893 19.858 8.0804 19.5797 8.85034C19.3015 9.6203 18.8908 10.3279 18.3655 10.9299L10.7534 19.6573C10.5635 19.875 10.2887 20 9.99977 20C9.71085 20 9.43606 19.875 9.24615 19.6573L1.63389 10.9297C0.575632 9.71641 0 8.09676 0 6.43187C0 4.76697 0.575632 3.14733 1.63389 1.93402C2.69594 0.716364 4.16807 0.000527978 5.73725 0.000527978C7.30642 0.000527978 8.77856 0.716364 9.84061 1.93402C9.8718 1.96978 9.9004 2.00771 9.92621 2.04754L9.99977 2.16107L10.0733 2.04754C10.0991 2.00778 10.1276 1.9699 10.1588 1.93419C10.684 1.33171 11.3151 0.845297 12.0202 0.510327ZM14.2623 2C13.792 2 13.3223 2.10599 12.8784 2.31684C12.4526 2.51916 12.0553 2.81594 11.711 3.19808L10.839 4.54379C10.6547 4.82827 10.3388 5 9.99977 5C9.66079 5 9.34489 4.82827 9.16055 4.54379L8.28862 3.19817C7.57971 2.41156 6.6613 2.00053 5.73725 2.00053C4.79363 2.00053 3.85589 2.42915 3.14113 3.24864C2.42257 4.07248 2 5.2158 2 6.43187C2 7.64794 2.42257 8.79126 3.14113 9.61509L9.99977 17.4787L16.8584 9.61509C17.2132 9.20855 17.5008 8.71855 17.6988 8.17057C17.8969 7.62256 18 7.0314 18 6.43187C18 5.83233 17.8969 5.24117 17.6988 4.69317C17.5008 4.14518 17.2133 3.65536 16.8586 3.24882C16.5042 2.84231 16.0906 2.52796 15.6461 2.31684C15.2023 2.10599 14.7325 2 14.2623 2Z" fill="#BB86FC"/>
</svg>
