<svg width="20" height="20" viewBox="0 0 20 20" fill="none" xmlns="http://www.w3.org/2000/svg">
<path fill-rule="evenodd" clip-rule="evenodd" d="M1.48711 8.84799C0.906359 8.84799 0.435565 9.31878 0.435565 9.89954C0.435565 10.4803 0.906359 10.9511 1.48711 10.9511L8.84795 10.9511L8.84795 18.3119C8.84795 18.8927 9.31874 19.3635 9.89949 19.3635C10.4802 19.3635 10.951 18.8927 10.951 18.3119L10.951 10.9511H18.3119C18.8926 10.9511 19.3634 10.4803 19.3634 9.89954C19.3634 9.31878 18.8926 8.84799 18.3119 8.84799H10.951L10.951 1.48716C10.951 0.906402 10.4802 0.435608 9.89949 0.435608C9.31874 0.435608 8.84795 0.906402 8.84795 1.48715L8.84795 8.84799L1.48711 8.84799Z" fill="#BB86FC"/>
</svg>
