<svg width="50" height="50" viewBox="0 0 50 50" fill="none" xmlns="http://www.w3.org/2000/svg">
<path d="M47.16 21.221L41.25 20.255C40.904 19.069 40.431 17.929 39.839 16.85L43.289 11.933C43.568 11.536 43.52 10.995 43.177 10.651L39.288 6.764C38.941 6.418 38.395 6.373 37.997 6.66L33.154 10.141C32.065 9.539 30.915 9.061 29.722 8.714L28.691 2.828C28.607 2.35 28.192 2 27.706 2H22.206C21.716 2 21.298 2.355 21.219 2.839L20.263 8.693C19.063 9.038 17.911 9.511 16.826 10.105L11.996 6.655C11.597 6.37 11.054 6.416 10.707 6.761L6.82 10.648C6.477 10.991 6.429 11.531 6.708 11.928L10.107 16.791C9.502 17.886 9.02 19.045 8.669 20.251L2.838 21.222C2.356 21.302 2.002 21.72 2.002 22.208V27.708C2.002 28.193 2.35 28.608 2.827 28.693L8.658 29.727C9.007 30.93 9.489 32.089 10.096 33.187L6.655 38C6.371 38.397 6.416 38.942 6.761 39.289L10.649 43.18C10.992 43.523 11.533 43.571 11.93 43.292L16.8 39.881C17.893 40.482 19.048 40.959 20.245 41.305L21.221 47.166C21.3 47.647 21.717 48 22.206 48H27.706C28.191 48 28.606 47.652 28.69 47.175L29.735 41.285C30.934 40.932 32.083 40.452 33.165 39.85L38.07 43.291C38.468 43.572 39.008 43.523 39.352 43.18L43.24 39.289C43.586 38.942 43.631 38.395 43.344 37.997L39.846 33.14C40.439 32.06 40.91 30.918 41.253 29.732L47.171 28.693C47.65 28.609 47.998 28.193 47.998 27.708V22.208C47.999 21.718 47.644 21.3 47.16 21.221ZM25 32C21.134 32 18 28.866 18 25C18 21.134 21.134 18 25 18C28.866 18 32 21.134 32 25C32 28.866 28.866 32 25 32Z" fill="#BB86FC"/>
</svg>
