<svg width="20" height="20" viewBox="0 0 20 20" fill="none" xmlns="http://www.w3.org/2000/svg">
<path fill-rule="evenodd" clip-rule="evenodd" d="M6.66699 0C5.43899 0 4.44397 0.942996 4.44397 2.105V4.211H3.33301H1.11102C0.497023 4.211 0 4.682 0 5.263C0 5.845 0.497023 6.31599 1.11102 6.31599H2.23602L2.38397 17.92C2.39797 19.073 3.38902 20 4.60602 20H15.556C16.783 20 17.778 19.057 17.778 17.895V6.31599H18.889C19.503 6.31599 20 5.845 20 5.263C20 4.682 19.503 4.211 18.889 4.211H16.667H15.556V2.105C15.556 0.942996 14.561 0 13.333 0H6.66699ZM13.333 4.211V2.105H6.66699V4.211H13.333ZM6.66699 6.31599H4.45801L4.60602 17.895H15.556V6.31599H13.333H6.66699ZM8.88898 8.42101C8.88898 7.84001 8.39102 7.368 7.77802 7.368C7.16402 7.368 6.66699 7.84001 6.66699 8.42101V14.737C6.66699 15.318 7.16402 15.789 7.77802 15.789C8.39102 15.789 8.88898 15.318 8.88898 14.737V8.42101ZM12.222 7.368C12.836 7.368 13.333 7.84001 13.333 8.42101V14.737C13.333 15.318 12.836 15.789 12.222 15.789C11.609 15.789 11.111 15.318 11.111 14.737V8.42101C11.111 7.84001 11.609 7.368 12.222 7.368Z" fill="#CF6679"/>
</svg>
