<svg width="47" height="41" viewBox="0 0 47 41" fill="none" xmlns="http://www.w3.org/2000/svg">
<path d="M34.827 6.24182C34.7896 5.96031 34.4287 3.45785 33.2564 2.18422C31.8562 0.625806 30.2628 0.464478 29.4967 0.386835C29.4298 0.380039 29.3684 0.373872 29.3132 0.367203C29.2981 0.365315 29.2831 0.363806 29.268 0.362673C24.6429 0.00415322 17.6611 0 17.591 0H17.5754C17.5054 0 10.5235 0.00415322 5.89941 0.362673C5.88431 0.363806 5.86921 0.365315 5.85423 0.367203C5.79911 0.373998 5.7377 0.380165 5.67075 0.386835C4.90489 0.464352 3.31225 0.625554 1.91114 2.18409C0.739817 3.45722 0.377899 5.95981 0.340525 6.24144C0.33977 6.24698 0.339141 6.25264 0.338386 6.25818C0.324543 6.37735 0 9.21065 0 12.0971V14.7792C0 17.6676 0.324543 20.4999 0.338386 20.6191C0.339015 20.6245 0.33977 20.6301 0.340399 20.6356C0.377774 20.9171 0.73881 23.4189 1.91164 24.6907C3.20831 26.1319 4.85015 26.3428 5.73279 26.4563C5.88821 26.4764 6.02248 26.4936 6.11397 26.5118C6.14517 26.518 6.17663 26.5228 6.20835 26.5261C8.87617 26.7993 17.22 26.8833 17.5855 26.8868C17.6556 26.8867 24.6432 26.8702 29.267 26.516C29.2841 26.5147 29.3011 26.513 29.318 26.5107C29.3748 26.5034 29.4384 26.497 29.5076 26.4897C30.272 26.4098 31.8615 26.2437 33.2563 24.6912C34.4277 23.4197 34.7895 20.9186 34.8269 20.6371C34.8276 20.6316 34.8283 20.6259 34.829 20.6202C34.8429 20.5011 35.1673 17.6679 35.1674 14.7805V12.0982C35.1674 9.21078 34.8429 6.3776 34.829 6.2583C34.8284 6.25277 34.8276 6.24736 34.827 6.24182ZM33.1538 14.7805C33.1538 17.4733 32.8493 20.2087 32.8298 20.3803C32.754 20.9396 32.4029 22.6495 31.7731 23.3295C31.7693 23.3335 31.7656 23.3376 31.7619 23.3418C30.8839 24.3216 29.9297 24.4213 29.2982 24.4873C29.2227 24.4952 29.1529 24.5027 29.0892 24.5105C24.5406 24.857 17.6509 24.8734 17.5934 24.8737C17.5081 24.8728 9.08179 24.7881 6.45587 24.5276C6.31065 24.5009 6.15411 24.4808 5.98938 24.4595C5.23535 24.3626 4.20257 24.2298 3.40487 23.3404C3.40109 23.3363 3.39732 23.3321 3.39354 23.3279C2.8338 22.7243 2.44936 21.2019 2.33724 20.3787C2.31736 20.2032 2.0132 17.4711 2.0132 14.7793V12.0972C2.0132 9.40419 2.31798 6.66779 2.33724 6.49816C2.41299 5.93829 2.76434 4.22699 3.39443 3.54543C3.39782 3.54166 3.40134 3.53788 3.40474 3.53411C4.28663 2.55079 5.24151 2.45414 5.87336 2.39009C5.94635 2.38267 6.01405 2.37574 6.07596 2.36845C10.6222 2.0176 17.5061 2.01345 17.5752 2.01345H17.5908C17.6598 2.01345 24.5437 2.0176 29.091 2.36845C29.1527 2.37574 29.2206 2.38267 29.2936 2.39009C29.9257 2.45402 30.8809 2.55079 31.7618 3.53373C31.7654 3.53776 31.7691 3.54166 31.7726 3.54569C32.3326 4.15073 32.7172 5.67365 32.8297 6.49866C32.8496 6.67396 33.1537 9.40721 33.1537 12.0981L33.1538 14.7805Z" fill="#BB86FC"/>
<path d="M33.6857 6.75077C33.6506 6.49132 33.3115 4.18486 32.2101 3.01098C30.8945 1.57464 29.3974 1.42595 28.6776 1.35438C28.6149 1.34812 28.5572 1.34244 28.5053 1.33629C28.4911 1.33455 28.477 1.33316 28.4628 1.33211C24.1173 1.00168 17.5576 0.997849 17.4918 0.997849H17.4771C17.4114 0.997849 10.8516 1.00168 6.50706 1.33211C6.49287 1.33316 6.47868 1.33455 6.46461 1.33629C6.41283 1.34255 6.35513 1.34824 6.29223 1.35438C5.57267 1.42583 4.07632 1.57441 2.75992 3.01087C1.65941 4.18428 1.31938 6.49085 1.28426 6.75042C1.28355 6.75553 1.28296 6.76075 1.28225 6.76585C1.26925 6.87569 0.964325 9.48707 0.964325 12.1474V14.6195C0.964325 17.2817 1.26925 19.8921 1.28225 20.0019C1.28284 20.0069 1.28355 20.012 1.28414 20.0171C1.31926 20.2766 1.65847 22.5825 2.76039 23.7546C3.97866 25.083 5.52124 25.2774 6.35052 25.382C6.49653 25.4004 6.62269 25.4163 6.70864 25.4331C6.73797 25.4388 6.76752 25.4432 6.79732 25.4462C9.30384 25.698 17.1432 25.7755 17.4866 25.7788C17.5524 25.7786 24.1177 25.7635 28.4619 25.437C28.4779 25.4358 28.4939 25.4342 28.5097 25.4321C28.5632 25.4254 28.6229 25.4194 28.6879 25.4127C29.4061 25.3391 30.8995 25.186 32.2099 23.7551C33.3106 22.5832 33.6505 20.278 33.6856 20.0185C33.6863 20.0134 33.6869 20.0082 33.6876 20.003C33.7006 19.8932 34.0054 17.2819 34.0055 14.6206V12.1484C34.0055 9.48718 33.7006 6.87592 33.6876 6.76597C33.687 6.76086 33.6863 6.75588 33.6857 6.75077ZM32.1137 14.6206C32.1137 17.1026 31.8276 19.6237 31.8093 19.7818C31.7381 20.2974 31.4082 21.8733 30.8165 22.5C30.8129 22.5037 30.8094 22.5076 30.8059 22.5114C29.981 23.4144 29.0845 23.5063 28.4912 23.5672C28.4202 23.5745 28.3546 23.5813 28.2948 23.5885C24.0212 23.9079 17.5481 23.923 17.494 23.9233C17.4139 23.9224 9.49704 23.8444 7.02988 23.6043C6.89344 23.5797 6.74636 23.5611 6.59159 23.5415C5.88315 23.4522 4.91281 23.3299 4.16334 22.5101C4.15979 22.5063 4.15624 22.5024 4.1527 22.4986C3.6268 21.9422 3.2656 20.5391 3.16026 19.7804C3.14157 19.6186 2.85581 17.1005 2.85581 14.6196V12.1475C2.85581 9.66545 3.14217 7.14338 3.16026 6.98703C3.23143 6.47102 3.56154 4.89375 4.15353 4.26558C4.15672 4.2621 4.16003 4.25862 4.16322 4.25514C4.99179 3.34884 5.88894 3.25977 6.48258 3.20073C6.55116 3.19389 6.61477 3.18751 6.67294 3.18078C10.9443 2.85742 17.412 2.85359 17.4769 2.85359H17.4916C17.5565 2.85359 24.0241 2.85742 28.2965 3.18078C28.3545 3.18751 28.4182 3.19389 28.4868 3.20073C29.0807 3.25965 29.9782 3.34885 30.8058 4.2548C30.8092 4.25851 30.8127 4.2621 30.816 4.26582C31.3421 4.82347 31.7034 6.22711 31.8091 6.9875C31.8278 7.14906 32.1136 9.66823 32.1136 12.1483L32.1137 14.6206Z" fill="white"/>
<path d="M24.325 12.5803L13.9613 6.36187C13.6502 6.17537 13.263 6.17046 12.9472 6.34903C12.6316 6.52772 12.4364 6.86233 12.4364 7.22501V19.6617C12.4364 20.0244 12.6315 20.3591 12.9472 20.5377C13.1013 20.6249 13.2723 20.6684 13.4432 20.6684C13.6226 20.6684 13.8019 20.6205 13.9611 20.525L24.3249 14.3066C24.628 14.1246 24.8136 13.7969 24.8136 13.4433C24.8136 13.0897 24.6283 12.7621 24.325 12.5803ZM14.45 17.8838V9.00326L21.8505 13.4435L14.45 17.8838Z" fill="#FF3A3A"/>
<g clip-path="url(#clip0_6_56)">
<path d="M44.3365 40.9792C41.314 38.7991 38.345 36.6577 35.3422 34.4915C34.6235 34.9504 33.9553 35.3722 33.2925 35.8017C31.8732 36.7209 30.4412 37.6216 29.045 38.5744C28.0977 39.221 27.2024 39.9431 26.2843 40.6322C26.1309 40.7471 25.9963 40.9217 25.8255 40.9676C25.6377 41.0189 25.3825 41.0127 25.2236 40.919C25.1091 40.8516 25.0532 40.5975 25.0582 40.429C25.1072 38.8053 25.2016 37.1828 25.2313 35.5592C25.2938 32.1156 25.3281 28.6725 25.3682 25.2285C25.3921 23.1923 25.4233 21.1553 25.4102 19.1191C25.4064 18.5253 25.2622 17.9323 25.1743 17.2795C25.4658 17.2375 25.7071 17.1673 25.9462 17.1743C26.5758 17.1924 27.2082 17.3061 27.8336 17.2726C31.6939 17.0663 35.5531 17.01 39.4181 17.1434C40.751 17.1893 42.0901 17.0428 43.4269 17.0096C44.8489 16.9746 45.0293 16.941 44.9117 18.503C44.7822 20.2203 44.8566 21.9523 44.8227 23.6777C44.7598 26.8718 44.6422 30.0648 44.6249 33.2592C44.6129 35.4624 44.7155 37.6671 44.8019 39.8695C44.8196 40.3241 44.7783 40.6915 44.3365 40.9792ZM26.3391 18.166C25.9978 19.8 25.8293 38.4834 26.1432 39.6116C29.1854 37.5723 32.2183 35.5384 35.2562 33.5014C38.1114 35.5449 40.9222 37.5568 43.7886 39.6081C43.8823 32.352 43.9748 25.1672 44.0689 17.8872C38.0929 17.8247 32.2048 17.664 26.3391 18.166Z" fill="#BB86FC"/>
<path d="M44.7153 41.8064C41.5703 39.5513 38.481 37.336 35.3564 35.0952C34.6086 35.5698 33.9133 36.0062 33.2236 36.4505C31.7468 37.4014 30.2567 38.3331 28.804 39.3187C27.8182 39.9876 26.8866 40.7347 25.9313 41.4475C25.7717 41.5663 25.6316 41.747 25.4539 41.7945C25.2585 41.8475 24.9929 41.8411 24.8276 41.7442C24.7085 41.6744 24.6503 41.4116 24.6555 41.2373C24.7065 39.5576 24.8048 37.8792 24.8356 36.1996C24.9006 32.6374 24.9363 29.0755 24.9781 25.5129C25.0029 23.4065 25.0354 21.2993 25.0218 19.1929C25.0178 18.5786 24.8677 17.9652 24.7763 17.2899C25.0796 17.2464 25.3307 17.1738 25.5795 17.181C26.2346 17.1997 26.8926 17.3174 27.5434 17.2827C31.5602 17.0693 35.5759 17.0111 39.5976 17.1491C40.9845 17.1966 42.3779 17.045 43.7689 17.0107C45.2485 16.9744 45.4363 16.9397 45.3139 18.5555C45.1791 20.332 45.2566 22.1237 45.2213 23.9086C45.1559 27.2128 45.0335 30.5158 45.0154 33.8204C45.003 36.0995 45.1097 38.3802 45.1996 40.6585C45.218 41.1288 45.1751 41.5089 44.7153 41.8064ZM25.9883 18.2069C25.6332 19.8973 25.4579 39.2246 25.7845 40.3917C28.95 38.2821 32.1059 36.1781 35.267 34.0709C38.2379 36.1849 41.1627 38.2661 44.1452 40.3881C44.2427 32.8819 44.339 25.4494 44.4369 17.9185C38.2186 17.8539 32.0918 17.6876 25.9883 18.2069Z" fill="#BB86FC"/>
<path d="M34.6968 19.3466C34.5537 20.5851 34.411 21.8239 34.2684 23.0624C34.0189 21.7395 34.1932 19.837 34.6968 19.3466Z" fill="#BB86FC"/>
<path d="M42.5339 22.4497C42.446 21.3566 42.2062 20.2515 42.6014 19.1993C42.6916 19.207 42.7826 19.2151 42.8728 19.2228C42.7599 20.2986 42.6469 21.3743 42.5339 22.4497Z" fill="#BB86FC"/>
<path d="M28.5449 19.2664C28.4778 20.4455 28.4104 21.6242 28.3367 22.9205C28.0213 21.778 28.0761 19.8363 28.5449 19.2664Z" fill="#BB86FC"/>
<path d="M32.5217 19.148C32.4639 20.1752 32.4057 21.202 32.3478 22.2291C32.059 21.1966 31.9334 20.1632 32.2341 19.1268C32.3297 19.1338 32.4257 19.1407 32.5217 19.148Z" fill="#BB86FC"/>
<path d="M39.009 18.9333C39.1405 20.181 38.8502 21.2363 38.8555 22.3005C38.4912 21.345 38.5417 19.7191 39.009 18.9333Z" fill="#BB86FC"/>
<path d="M30.5029 19.0516C30.4142 20.2461 30.3363 21.2876 30.2588 22.329C29.9207 20.6525 29.987 19.6774 30.5029 19.0516Z" fill="#BB86FC"/>
<path d="M36.797 19.3539C36.7357 20.1208 36.674 20.8877 36.6123 21.655C36.4449 20.8785 36.256 20.1046 36.5009 19.3458C36.5992 19.3481 36.6983 19.3508 36.797 19.3539Z" fill="#BB86FC"/>
<path d="M27.1565 19.2676C27.0902 20.2157 27.0235 21.1638 26.9568 22.1115C26.8214 21.1592 26.6818 20.2084 26.8453 19.2656C26.9494 19.2664 27.0528 19.2672 27.1565 19.2676Z" fill="#BB86FC"/>
<path d="M41.0009 21.0084C40.9103 20.3533 40.8193 19.6986 40.7287 19.0432C41.2237 19.4688 41.2723 19.8239 41.0009 21.0084Z" fill="#BB86FC"/>
<rect x="26" y="23" width="8" height="5" fill="white"/>
<rect x="26" y="18" width="17" height="6" fill="white"/>
</g>
<defs>
<clipPath id="clip0_6_56">
<rect width="24" height="24" fill="white" transform="translate(23 17)"/>
</clipPath>
</defs>
</svg>
